{
  "title": "Mustang.2015.DVDRip.XviD.AC3. HORiZON-ArtSubs",
  "uid": 12760209,
  "size": 1467205632,
  "categoryP": "video",
  "categoryS": "movies",
  "magnet": "?xt=urn:btih:a4765b4b975da1cc489f48cad23a670fda8faf08&amp;dn=Mustang.2015.DVDRip.XviD.AC3.+HORiZON-ArtSubs&amp;tr=udp%3A%2F%2Ftracker.leechers-paradise.org%3A6969&amp;tr=udp%3A%2F%2Fzer0day.ch%3A1337&amp;tr=udp%3A%2F%2Fopen.demonii.com%3A1337&amp;tr=udp%3A%2F%2Ftracker.coppersurfer.tk%3A6969&amp;tr=udp%3A%2F%2Fexodus.desync.com%3A6969",
  "seeders": 65,
  "leechers": 0,
  "uploader": "lletaif",
  "files": 1,
  "time": 1447519199,
  "description": "IMDB: \nhttp://www.imdb.com/title/tt3966404\r\n\r\n\r\nGeneral\r\nComplete name                            : Mustang.2015.DVDRip.XviD.AC3. HORiZON-ArtSubs.avi\r\nFormat                                   : AVI\r\nFormat/Info                              : Audio Video Interleave\r\nFile size                                : 1.37 GiB\r\nDuration                                 : 1h 33mn\r\nOverall bit rate                         : 2 102 Kbps\r\nWriting application                      : FairUse Wizard - http://fairusewizard.com\r\nWriting library                          : The best and REALLY easy backup tool\r\n\r\nVideo\r\nID                                       : 0\r\nFormat                                   : AVC\r\nFormat/Info                              : Advanced Video Codec\r\nFormat profile                           :   \r\nFormat settings, CABAC                   : Yes\r\nFormat settings, ReFrames                : 2 frames\r\nCodec ID                                 : H264\r\nDuration                                 : 1h 33mn\r\nBit rate                                 : 1 644 Kbps\r\nWidth                                    : 704 pixels\r\nHeight                                   : 288 pixels\r\nDisplay aspect ratio                     : 2.40:1\r\nFrame rate                               : 25.000 fps\r\nColor space                              : YUV\r\nChroma subsampling                       : 4:2:0\r\nBit depth                                : 8 bits\r\nScan type                                : Progressive\r\nBits/(Pixel*Frame)                       : 0.324\r\nStream size                              : 1.07 GiB (78%)\r\nWriting library                          : x264 core 58 svn-736bm\r\nEncoding settings                        : cabac=1 / ref=1 / deblock=1:0:0 / analyse=0x1:0x131 / me=hex / subme=5 / brdo=0 / mixed_ref=0 / me_range=16 / chroma_me=1 / trellis=1 / 8x8dct=0 / cqm=0 / deadzone=21,11 / chroma_qp_offset=0 / threads=4 / nr=0 / decimate=1 / mbaff=0 / bframes=2 / b_pyramid=0 / b_adapt=1 / b_bias=0 / direct=1 / wpredb=1 / bime=0 / keyint=250 / keyint_min=25 / scenecut=40(pre) / rc=2pass / bitrate=1644 / ratetol=1.0 / rceq='blurCplx^(1-qComp)' / qcomp=0.60 / qpmin=10 / qpmax=51 / qpstep=4 / cplxblur=20.0 / qblur=0.5 / ip_ratio=1.40 / pb_ratio=1.30\r\n\r\nAudio\r\nID                                       : 1\r\nFormat                                   : AC-3\r\nFormat/Info                              : Audio Coding 3\r\nMode extension                           : CM (complete main)\r\nFormat settings, Endianness              : Big\r\nCodec ID                                 : 2000\r\nDuration                                 : 1h 33mn\r\nBit rate mode                            : Constant\r\nBit rate                                 : 448 Kbps\r\nChannel(s)                               : 6 channels\r\nChannel positions                        : Front: L C R, Side: L R, LFE\r\nSampling rate                            : 48.0 KHz\r\nBit depth                                : 16 bits\r\nCompression mode                         : Lossy\r\nStream size                              : 298 MiB (21%)\r\nAlignment                                : Split accross interleaves\r\nInterleave, duration                     : 40 ms (1.00 video frame)\r\nInterleave, preload duration             : 500 ms",
  "parsed": {
    "xt": "urn:btih:a4765b4b975da1cc489f48cad23a670fda8faf08",
    "dn": "Mustang.2015.DVDRip.XviD.AC3. HORiZON-ArtSubs",
    "tr": [
      "udp://exodus.desync.com:6969",
      "udp://open.demonii.com:1337",
      "udp://tracker.coppersurfer.tk:6969",
      "udp://tracker.leechers-paradise.org:6969",
      "udp://zer0day.ch:1337"
    ],
    "infoHash": "a4765b4b975da1cc489f48cad23a670fda8faf08",
    "infoHashBuffer": {
      "type": "Buffer",
      "data": [
        164,
        118,
        91,
        75,
        151,
        93,
        161,
        204,
        72,
        159,
        72,
        202,
        210,
        58,
        103,
        15,
        218,
        143,
        175,
        8
      ]
    },
    "name": "Mustang.2015.DVDRip.XviD.AC3. HORiZON-ArtSubs",
    "announce": [
      "udp://exodus.desync.com:6969",
      "udp://open.demonii.com:1337",
      "udp://tracker.coppersurfer.tk:6969",
      "udp://tracker.leechers-paradise.org:6969",
      "udp://zer0day.ch:1337"
    ],
    "urlList": []
  },
  "previous": 186,
  "peers": 308,
  "last_updated": "2016-12-27T09:08:40.224Z"
}